<svg width="211" height="211" viewBox="0 0 211 211" fill="none" xmlns="http://www.w3.org/2000/svg">
<path d="M184.625 87.9167V35.1667C184.625 25.4958 176.712 17.5833 167.042 17.5833H26.375C16.7041 17.5833 8.87954 25.4958 8.87954 35.1667L8.79163 140.667C8.79163 150.337 16.7041 158.25 26.375 158.25H123.083V114.292C123.083 99.6975 134.864 87.9167 149.458 87.9167H184.625ZM96.7083 96.7083L26.375 52.75V35.1667L96.7083 79.125L167.042 35.1667V52.75L96.7083 96.7083Z" fill="#F2F2F2"/>
<path d="M184.625 123.083V158.25C184.625 167.921 176.713 175.833 167.042 175.833C157.371 175.833 149.458 167.921 149.458 158.25V118.688C149.458 116.226 151.392 114.292 153.854 114.292C156.316 114.292 158.25 116.226 158.25 118.688V158.25H175.833V118.688C175.833 112.858 173.518 107.268 169.396 103.146C165.274 99.024 159.683 96.7083 153.854 96.7083C148.025 96.7083 142.434 99.024 138.313 103.146C134.191 107.268 131.875 112.858 131.875 118.688V158.25C131.875 177.68 147.612 193.417 167.042 193.417C186.471 193.417 202.208 177.68 202.208 158.25V123.083H184.625Z" fill="#F2F2F2"/>
</svg>
