<svg width="25" height="24" viewBox="0 0 25 24" fill="none" xmlns="http://www.w3.org/2000/svg">
<path d="M16 11.5C16 13.5 13.5 15 13.5 16.5H11.5C11.5 15 9 13.5 9 11.5C9 9.57 10.57 8 12.5 8C14.43 8 16 9.57 16 11.5ZM13.5 17.5H11.5V18C11.5 18.55 11.95 19 12.5 19C13.05 19 13.5 18.55 13.5 18V17.5ZM22.5 12C22.5 9.54 21.61 7.29 20.14 5.55C20.0731 5.46832 19.99 5.40148 19.8959 5.35375C19.8017 5.30602 19.6986 5.27845 19.5932 5.27281C19.4878 5.26716 19.3824 5.28356 19.2837 5.32096C19.185 5.35836 19.0952 5.41593 19.02 5.49C18.75 5.76 18.72 6.2 18.96 6.49C20.2777 8.02324 21.0015 9.97835 21 12C21 14.1 20.23 16.03 18.96 17.52C18.71 17.81 18.75 18.25 19.02 18.52C19.34 18.84 19.85 18.8 20.14 18.46C21.61 16.71 22.5 14.46 22.5 12ZM4 12C4 9.9 4.77 7.97 6.04 6.48C6.29 6.19 6.25 5.75 5.98 5.48C5.90422 5.40704 5.81425 5.35044 5.71567 5.31373C5.61708 5.27701 5.51201 5.26097 5.40696 5.2666C5.30192 5.27223 5.19915 5.2994 5.10506 5.34644C5.01096 5.39347 4.92755 5.45936 4.86 5.54C3.39 7.29 2.5 9.54 2.5 12C2.5 14.46 3.39 16.71 4.86 18.46C5.15 18.8 5.66 18.84 5.98 18.52C6.25 18.25 6.28 17.81 6.04 17.52C4.72365 15.9821 4.00016 14.0244 4 12ZM18 12C18 13.28 17.56 14.47 16.82 15.41C16.59 15.7 16.62 16.12 16.89 16.39C17.21 16.71 17.74 16.68 18.02 16.32C18.979 15.0841 19.4996 13.5643 19.5 12C19.5 10.37 18.94 8.87 18.01 7.69C17.9443 7.6055 17.8613 7.53594 17.7666 7.48595C17.6719 7.43596 17.5677 7.40669 17.4608 7.40007C17.3539 7.39345 17.2469 7.40963 17.1467 7.44755C17.0466 7.48547 16.9557 7.54426 16.88 7.62C16.62 7.88 16.58 8.3 16.81 8.6C17.56 9.53 18 10.72 18 12ZM8.12 16.38C8.38 16.12 8.42 15.7 8.19 15.4C7.41623 14.4361 6.99622 13.2361 7 12C7 10.72 7.44 9.53 8.18 8.59C8.41 8.3 8.38 7.88 8.11 7.61C8.03406 7.53665 7.94368 7.47992 7.8446 7.44344C7.74553 7.40696 7.63994 7.39152 7.53457 7.3981C7.4292 7.40469 7.32635 7.43316 7.23259 7.48169C7.13883 7.53023 7.05621 7.59777 6.99 7.68C6.02378 8.91263 5.49911 10.4338 5.5 12C5.5 13.63 6.06 15.13 6.99 16.32C7.27 16.67 7.8 16.7 8.12 16.38Z" fill="#F2F2F2"/>
</svg>
