<svg width="211" height="169" viewBox="0 0 211 169" fill="none" xmlns="http://www.w3.org/2000/svg">
<path d="M68.575 116.05C67.787 116.05 66.9991 116.165 66.2474 116.409C61.9746 117.797 57.481 118.688 52.75 118.688C48.019 118.688 43.5253 117.797 39.2493 116.409C38.4976 116.165 37.7129 116.05 36.925 116.05C16.4646 116.05 -0.108814 132.693 -1.67132e-05 153.179C0.0461395 161.837 7.16409 168.8 15.825 168.8H89.675C98.3359 168.8 105.454 161.837 105.5 153.179C105.609 132.693 89.0354 116.05 68.575 116.05ZM52.75 105.5C70.23 105.5 84.4 91.33 84.4 73.85C84.4 56.37 70.23 42.2 52.75 42.2C35.27 42.2 21.1 56.37 21.1 73.85C21.1 91.33 35.27 105.5 52.75 105.5ZM195.175 0H68.575C59.8482 0 52.75 7.33555 52.75 16.3492V31.65C60.4713 31.65 67.6189 33.8853 73.85 37.5184V21.1H189.9V116.05H168.8V94.95H126.6V116.05H101.465C107.762 121.552 112.384 128.819 114.55 137.15H195.175C203.902 137.15 211 129.814 211 120.801V16.3492C211 7.33555 203.902 0 195.175 0Z" fill="#F2F2F2"/>
</svg>
